<?xml version="1.0"?>
<svg xmlns="http://www.w3.org/2000/svg" id="Layer" enable-background="new 0 0 64 64" height="512px" viewBox="0 0 64 64" width="512px" class=""><g><path d="m16 10h32c3.314 0 6 2.686 6 6v32c0 3.314-2.686 6-6 6h-32c-3.314 0-6-2.686-6-6v-32c0-3.314 2.686-6 6-6z" fill="#4dd0e1" data-original="#4DD0E1" class="active-path" data-old_color="#4dd0e1" style="fill:#F30000"/><g fill="#012e52"><path d="m16 56h32c4.411 0 8-3.589 8-8v-8c0-1.104-.896-2-2-2s-2 .896-2 2v8c0 2.206-1.794 4-4 4h-32c-2.206 0-4-1.794-4-4v-32c0-2.206 1.794-4 4-4h32c2.206 0 4 1.794 4 4v8c0 1.104.896 2 2 2s2-.896 2-2v-8c0-4.411-3.589-8-8-8h-32c-4.411 0-8 3.589-8 8v32c0 4.411 3.589 8 8 8z" data-original="#012E52" class="" style="fill:#FFFFFF" data-old_color="#012E52"/><path d="m48 32c0-1.104-.896-2-2-2h-23.172l4.586-4.586c.781-.781.781-2.047 0-2.828s-2.047-.781-2.828 0l-8 8c-.781.781-.781 2.047 0 2.828l8 8c.391.391.902.586 1.414.586s1.023-.195 1.414-.586c.781-.781.781-2.047 0-2.828l-4.586-4.586h23.172c1.104 0 2-.896 2-2z" data-original="#012E52" class="" style="fill:#FFFFFF" data-old_color="#012E52"/></g></g> </svg>
