<?xml version="1.0"?>
<svg xmlns="http://www.w3.org/2000/svg" id="Capa_1" enable-background="new 0 0 419.175 419.175" height="512px" viewBox="0 0 419.175 419.175" width="512px"><g transform="matrix(0.514468 0 0 0.514468 101.761 101.761)"><path d="m14.971 419.175c-2.383 0-4.766-.57-6.944-1.711-4.942-2.587-8.027-7.689-8.027-13.259v-389.234c0-8.275 6.696-14.971 14.971-14.971h389.234c8.275 0 14.971 6.696 14.971 14.971v299.411c0 8.275-6.696 14.971-14.971 14.971h-254.806l-125.905 87.162c-2.559 1.769-5.526 2.66-8.523 2.66zm14.97-389.234v345.697l106.256-73.566c2.5-1.725 5.482-2.661 8.523-2.661h244.514v-269.47z" data-original="#000000" class="active-path" fill="#000000"/></g> </svg>
