<?xml version="1.0"?>
<svg xmlns="http://www.w3.org/2000/svg" xmlns:xlink="http://www.w3.org/1999/xlink" version="1.1" id="Layer_1" x="0px" y="0px" viewBox="0 0 512.155 512.155" style="enable-background:new 0 0 512.155 512.155;" xml:space="preserve" width="512px" height="512px" class=""><g transform="matrix(0.770043 0 0 0.770043 58.8867 58.8867)"><g>
	<g>
		<path d="M400.094,160.024H76.051c-2.197,0-4.027,1.831-4.027,4.027c0,2.196,1.831,4.027,4.027,4.027h324.043    c2.197,0,4.027-1.831,4.027-4.027C404,161.733,402.291,160.024,400.094,160.024z" data-original="#000000" class="active-path" data-old_color="#000000" fill="#5368EC"/>
	</g>
</g><g>
	<g>
		<path d="M264.008,95.949H76.051c-2.197,0-4.027,1.831-4.027,4.027s1.831,4.027,4.027,4.027h187.957    c2.197,0,4.027-1.831,4.027-4.027C268.036,97.779,266.205,95.949,264.008,95.949z" data-original="#000000" class="active-path" data-old_color="#000000" fill="#5368EC"/>
	</g>
</g><g>
	<g>
		<path d="M400.094,95.948h-83.97c-2.197,0-4.027,1.831-4.027,4.027c0,2.197,1.831,4.027,4.027,4.027h83.97    c2.197,0,4.027-1.831,4.027-4.027C404,97.779,402.291,95.948,400.094,95.948z" data-original="#000000" class="active-path" data-old_color="#000000" fill="#5368EC"/>
	</g>
</g><g>
	<g>
		<path d="M510.794,181.017l-34.784-32.099V82.889c0-34.052-23.555-58.829-56.022-58.829H60.063    C26.987,23.938,0.014,50.424,0.014,82.767v99.837c0,33.197,27.461,61.391,60.049,61.391h359.925    c30.024,0,57.608-26.241,59.927-56.021h28.194c1.587,0,3.173-0.976,3.783-2.563C512.502,183.824,512.014,182.237,510.794,181.017z     M476.01,180.04c-2.197,0-4.027,1.831-4.027,4.027c0,24.532-22.213,51.993-51.993,51.993H60.063    c-28.194,0-51.993-24.41-51.993-53.335V82.889c0-28.438,22.823-50.773,51.993-50.773h359.925    c27.828,0,48.088,21.358,48.088,50.773v67.859c0,1.098,0.488,2.197,1.22,2.929l28.56,26.363H476.01z" data-original="#000000" class="active-path" data-old_color="#000000" fill="#5368EC"/>
	</g>
</g><g>
	<g>
		<path d="M432.071,404.003H108.028c-2.197,0-4.027,1.831-4.027,4.027c0,2.196,1.831,4.027,4.027,4.027h324.043    c2.197,0,4.027-1.831,4.027-4.027C436.099,405.834,434.268,404.003,432.071,404.003z" data-original="#000000" class="active-path" data-old_color="#000000" fill="#5368EC"/>
	</g>
</g><g>
	<g>
		<path d="M432.071,340.049H244.114c-2.197,0-4.027,1.831-4.027,4.027c0,2.197,1.831,4.027,4.027,4.027h187.957    c2.197,0,4.027-1.831,4.027-4.027C436.099,341.757,434.268,340.049,432.071,340.049z" data-original="#000000" class="active-path" data-old_color="#000000" fill="#5368EC"/>
	</g>
</g><g>
	<g>
		<path d="M191.999,339.927h-83.97c-2.197,0-4.027,1.831-4.027,4.027c0,2.319,1.831,4.027,4.027,4.027h83.97    c2.197,0,4.027-1.831,4.027-4.027S194.195,339.927,191.999,339.927z" data-original="#000000" class="active-path" data-old_color="#000000" fill="#5368EC"/>
	</g>
</g><g>
	<g>
		<path d="M451.965,268.039H92.04c-33.686,0-60.049,25.753-60.049,58.706v66.273L1.113,425.239    c-1.098,1.098-1.465,2.807-0.732,4.394c0.61,1.465,2.075,2.441,3.661,2.441h28.194c2.319,29.78,29.78,56.021,59.927,56.021    h359.925c31.367,0,56.021-26.973,56.021-61.513v-99.837C508.109,292.693,484.431,268.039,451.965,268.039z M452.088,479.917H92.04    c-29.78,0-51.993-27.461-51.993-51.993c0-2.197-1.831-4.027-4.027-4.027H13.318l25.509-26.729    c0.732-0.732,1.098-1.709,1.098-2.807v-67.859c0-28.438,22.823-50.65,51.993-50.65h359.925c27.828,0,47.966,21.358,47.966,50.65    v99.958h0.244C500.054,456.483,478.939,479.917,452.088,479.917z" data-original="#000000" class="active-path" data-old_color="#000000" fill="#5368EC"/>
	</g>
</g></g> </svg>
